<svg xmlns="http://www.w3.org/2000/svg" viewBox="0 0 64 64" shape-rendering="crispEdges">
  
  <rect width="64" height="64" fill="#0a0e14"></rect>

  
  <g fill="#3b6e85">
    <rect x="4" y="4" width="6" height="1"></rect>
    <rect x="4" y="4" width="1" height="6"></rect>
    <rect x="54" y="4" width="6" height="1"></rect>
    <rect x="59" y="4" width="1" height="6"></rect>
    <rect x="4" y="59" width="6" height="1"></rect>
    <rect x="4" y="54" width="1" height="6"></rect>
    <rect x="54" y="59" width="6" height="1"></rect>
    <rect x="59" y="54" width="1" height="6"></rect>
  </g>

  
  <g fill="#3b6e85">
    
    <rect x="14" y="16" width="2" height="32"></rect>
    <rect x="14" y="16" width="6" height="2"></rect>
    <rect x="14" y="46" width="6" height="2"></rect>
    
    <rect x="48" y="16" width="2" height="32"></rect>
    <rect x="44" y="16" width="6" height="2"></rect>
    <rect x="44" y="46" width="6" height="2"></rect>
  </g>

  
  <g fill="#c5d1de">
    
    <rect x="25" y="20" width="14" height="4"></rect>
    
    <rect x="25" y="24" width="4" height="4"></rect>
    
    <rect x="25" y="30" width="14" height="4"></rect>
    
    <rect x="35" y="34" width="4" height="4"></rect>
    
    <rect x="25" y="40" width="14" height="4"></rect>
  </g>

  
  <rect x="39" y="20" width="2" height="4" fill="#3b6e85"></rect>
  <rect x="23" y="40" width="2" height="4" fill="#3b6e85"></rect>
</svg>